<svg id="Layer_1" data-name="Layer 1" xmlns="http://www.w3.org/2000/svg" viewBox="0 0 656.84 706.15"><defs><style>.cls-1,.cls-2,.cls-3,.cls-4{stroke:#fff;}.cls-1{stroke-width:14.4px;}.cls-2{stroke-width:7.2px;}.cls-3,.cls-4{stroke-width:7.2px;}.cls-4,.cls-5{fill:#fff;}.cls-6{fill:#020204;}</style></defs><g id="b"><ellipse class="cls-1" cx="509" cy="111.62" rx="91.78" ry="84.72"/><rect class="cls-1" x="417.22" y="90.44" width="183.57" height="183.57" rx="22.19"/></g><g id="a"><path class="cls-2" d="M457.86,9.28h0a6.55,6.55,0,0,0-2.55,8.91L491,82.59a6.57,6.57,0,0,0,8.92,2.55h0a6.55,6.55,0,0,0,2.55-8.91l-35.69-64.4A6.56,6.56,0,0,0,457.86,9.28Z" transform="translate(-9 -4.85)"/><path id="c" class="cls-3" d="M638,116.47h0a24.21,24.21,0,0,0-24.21,24.21v85.73A24.21,24.21,0,0,0,638,250.62h0a24.21,24.21,0,0,0,24.2-24.21V140.68A24.21,24.21,0,0,0,638,116.47Z" transform="translate(-9 -4.85)"/><path id="c-2" data-name="c" class="cls-3" d="M552.29,214.31h0a24.19,24.19,0,0,0-24.2,24.2v85.74a24.2,24.2,0,0,0,24.2,24.2h0a24.21,24.21,0,0,0,24.21-24.2V238.51A24.2,24.2,0,0,0,552.29,214.31Z" transform="translate(-9 -4.85)"/></g><g id="a-2" data-name="a"><path class="cls-2" d="M578.14,9.28h0a6.55,6.55,0,0,1,2.55,8.91L545,82.59a6.57,6.57,0,0,1-8.92,2.55h0a6.55,6.55,0,0,1-2.55-8.91l35.69-64.4A6.56,6.56,0,0,1,578.14,9.28Z" transform="translate(-9 -4.85)"/><path id="c-3" data-name="c" class="cls-3" d="M398,116.47h0a24.21,24.21,0,0,1,24.21,24.21v85.73A24.21,24.21,0,0,1,398,250.62h0a24.21,24.21,0,0,1-24.2-24.21V140.68A24.21,24.21,0,0,1,398,116.47Z" transform="translate(-9 -4.85)"/><path id="c-4" data-name="c" class="cls-3" d="M483.71,214.31h0a24.19,24.19,0,0,1,24.2,24.2v85.74a24.2,24.2,0,0,1-24.2,24.2h0a24.21,24.21,0,0,1-24.21-24.2V238.51A24.2,24.2,0,0,1,483.71,214.31Z" transform="translate(-9 -4.85)"/></g><g id="b-2" data-name="b"><ellipse cx="509" cy="111.62" rx="91.78" ry="84.72"/><rect x="417.22" y="90.44" width="183.57" height="183.57" rx="22.19"/></g><path class="cls-4" d="M422.18,120H613.82" transform="translate(-9 -4.85)"/><circle class="cls-4" cx="466.64" cy="70.26" r="4.03"/><circle class="cls-4" cx="551.36" cy="70.26" r="4.03"/><path id="path13" d="M15.83,68.85,146.21,51.09l0,125.76L16,177.59ZM146.14,191.34l.1,125.86L15.94,299.29V190.5ZM162,48.77,334.81,23.54V175.25L162,176.62Zm172.9,143.75,0,151L162,319.15l-.25-126.91Z" transform="translate(-9 -4.85)"/><g id="g186"><path id="path188" d="M610.78,551.64c-.38-43,35.14-63.68,36.75-64.69-20-29.25-51.11-33.26-62.2-33.73-26.47-2.68-51.67,15.58-65.08,15.58s-34.16-15.19-56.1-14.76c-28.88.42-55.48,16.77-70.35,42.62-30,52-7.65,129.08,21.54,171.29,14.29,20.63,31.3,43.88,53.68,43,21.55-.86,29.69-13.93,55.71-13.93s33.34,13.93,56.12,13.52c23.16-.45,37.86-21.09,52-41.78a186.5,186.5,0,0,0,23.53-48.37c-.51-.21-45.17-17.33-45.64-68.78" transform="translate(-9 -4.85)"/></g><path id="path190" d="M568,425.3c11.87-14.38,19.88-34.37,17.68-54.3-17.1.69-37.8,11.4-50.08,25.78-11,12.71-20.64,33.06-18,52.58,19.07,1.48,38.55-9.71,50.42-24.06" transform="translate(-9 -4.85)"/><g id="g1768"><path id="path4529" class="cls-5" d="M132.77,398.05l50.68,5.28,19,66.51,41.18,75,13.72,62.28,10,3.29L272.52,622l1,8.59,8.31,9L293,648l5,8.49-4.1,8-42.37,26.22-17,15-21.74,1.68-16-9.43L192,680.08l-68.5,5.22-5.78,14.47-15.58,8.3-18.95-2.8L64.8,697l-24.64-5.42-24.35-7.93-4.57-7.37,2.52-9.14,4.38-13L17,635l.28-10.08,3.36-5.32,9.61-2.89,8.4.28,5.79-1.87,8-11.29,4.67-5.51,34.06-84.91,22.58-28.28L109.68,438l1.78-28.09Z" transform="translate(-9 -4.85)"/><path id="path1726" class="cls-6" d="M153.57,371a48.3,48.3,0,0,0-23.35,5.38,42,42,0,0,0-17.55,18.27c-3.8,7.68-5.2,16.35-5.53,24.92s.33,16.84.8,25.24q.75,13.13.88,26.26a47.75,47.75,0,0,1,.55,8.45c0,1.42-.12,2.87-.14,4.3,0,.07,0,.15-.08.23a56.25,56.25,0,0,1-3.93,7.74q-4.35,5.43-8.69,10.88-4.82,6.06-9.66,12.1c-4,4.94-8.06,9.91-10.65,15.69-2.22,5-3.27,10.37-4.8,15.6a117.59,117.59,0,0,1-6.72,17.27c-2.44,5.16-5.13,10.2-7.82,15.24-2,3.66-3.94,7.41-4.62,11.51a23.5,23.5,0,0,0,.6,9.76c0,.13.08.25.11.38a15.61,15.61,0,0,0-1.39,1.44A34.26,34.26,0,0,0,48,607.07a47,47,0,0,1-2.68,4.39,9.36,9.36,0,0,1-2.72,2.6,9.7,9.7,0,0,1-3.88,1c-1.6.12-3.45,0-5.55,0a30.49,30.49,0,0,0-7,.46,15.21,15.21,0,0,0-7.53,3.79,15,15,0,0,0-4.17,8,28.41,28.41,0,0,0-.31,7.6c.34,5.1,1.11,9.85,1.34,14.32A29.49,29.49,0,0,1,14,661.58c-.88,2.19-2.55,4.74-3.8,8.15A17.49,17.49,0,0,0,9,675.53a12.49,12.49,0,0,0,1.66,6.6,13.59,13.59,0,0,0,6.42,5.45,37.57,37.57,0,0,0,6.17,2c3.95,1.07,8,2.52,12.31,3.81,14,4.2,28.15,5.82,40.55,10.7,6.09,2.4,12.87,6.21,21.17,6.53a27.26,27.26,0,0,0,14.94-3.82,28.19,28.19,0,0,0,10.52-11.17,28.65,28.65,0,0,0,2.76-8.1A74.49,74.49,0,0,1,137.66,686c1.27,0,2.55,0,3.81-.13a71.57,71.57,0,0,0,10.56.39l1.3-.07c.91.1,1.83.15,2.74.21,6.2.36,12.38,1,18.52,1.89,5.39.81,10.75,1.88,16.06,3.16l2.43.61a20.18,20.18,0,0,0,2.68,7.11c2.77,4.42,7.05,7,11.06,8.73a34.55,34.55,0,0,0,18.65,2.75,33.35,33.35,0,0,0,14.41-6c4.13-2.95,7.35-6.42,10.48-9.38A81.37,81.37,0,0,1,262,686c6.17-4,13.27-7,20.45-10.66,4.23-2.12,8.94-4.65,12.62-9a23.52,23.52,0,0,0,4-6.57,5.1,5.1,0,0,0,.2-.63,12,12,0,0,0-1.24-8.66,14.82,14.82,0,0,0-3.92-4.38c-1.36-1.07-2.64-1.84-3.67-2.54-2.21-1.49-4.37-3.26-6.63-5.14a47.42,47.42,0,0,1-5.89-5.5,13.13,13.13,0,0,1-3-5.74c-.22-1.15-.23-2.78-.41-4.86a25,25,0,0,0-1.62-7.17,14.55,14.55,0,0,0-3.12-4.94,15,15,0,0,0-6.53-3.7l-.11,0a37.51,37.51,0,0,0,3.11-9.5c1.45-7.73.78-15.71-.56-23.45a158.09,158.09,0,0,0-8.88-30.87c-2.9-7.33-6.29-14.55-11-20.86s-10.48-11.36-15-17.6c-2.39-3.29-4.42-6.86-6.91-10.05-1-2.09-2-4.18-3-6.28-3-6.53-5.72-13.21-9.27-19.46-.55-1-1.13-1.92-1.73-2.87-.46-6-1.1-11.95-1.41-17.93-.61-12,.14-24.22-3-35.8a58.18,58.18,0,0,0-7.12-16,54.84,54.84,0,0,0-13.92-15A53.7,53.7,0,0,0,153.57,371Zm18.6,40.27a6.81,6.81,0,0,1,3.68,1.16,16.4,16.4,0,0,1,6.51,8.23c.36.88.7,2.39.28,2.86a23.12,23.12,0,0,0-7.75-9.18,16.65,16.65,0,0,0-5.75-2.45c.33-.68,1.16-.58,1.79-.61C171.35,411.26,171.76,411.25,172.17,411.27Zm-47.82,2.58a11.38,11.38,0,0,1,4.21.94,22.81,22.81,0,0,1,4.35,2.61,6,6,0,0,1,1.47,1.36,13.07,13.07,0,0,1,1.94,5.48A19.4,19.4,0,0,0,131,417.4a17.9,17.9,0,0,0-4.19-2.61,11.56,11.56,0,0,0-3.5-.89l.4,0c.21,0,.41,0,.61,0Zm42.43,4.69a13.31,13.31,0,0,1,1.55.12,14.34,14.34,0,0,1,5.75,2.18,18.88,18.88,0,0,1,7.29,9.76,29.41,29.41,0,0,1,1.41,11.26,23.77,23.77,0,0,1-2,8.69,15.21,15.21,0,0,1-2.33,3.6,31.14,31.14,0,0,0-3.59-1c-1.56-.37-3.1-.84-4.63-1.35a8.11,8.11,0,0,0,2-1,9.27,9.27,0,0,0,2.83-3.23,12,12,0,0,0,1.27-4.12,12.65,12.65,0,0,0-1.21-7.44,10.45,10.45,0,0,0-5.55-5,8.29,8.29,0,0,0-2.42-.51,7.66,7.66,0,0,0-.83,0A7.3,7.3,0,0,0,163,431.6a8.78,8.78,0,0,0-2.52,2.45,12.71,12.71,0,0,0-2,6.69,14.12,14.12,0,0,0,.71,5.24c.14.38.3.76.48,1.13L157,445.66c-1-.51-1.95-1-3-1.49-.27-.58-.53-1.17-.8-1.75a15.3,15.3,0,0,0-1.7-2.79,19,19,0,0,1,.54-9.87,18.43,18.43,0,0,1,7-8.73,14.8,14.8,0,0,1,3.1-1.69A12.16,12.16,0,0,1,166.78,418.54ZM123.64,421a8.87,8.87,0,0,1,4.37,1,13.18,13.18,0,0,1,3.6,2.7,20.62,20.62,0,0,1,4.7,8A29.92,29.92,0,0,1,137.7,441c-.61.81-1.17,1.65-1.73,2.49l-.23.07a31.9,31.9,0,0,0-3.62,1.53,16,16,0,0,0-.63-6.49,11.7,11.7,0,0,0-3.41-5.55,6.78,6.78,0,0,0-2.77-1.45,5.13,5.13,0,0,0-1.56-.13,4.42,4.42,0,0,0-1.52.38,5.32,5.32,0,0,0-2.42,2.43,11.13,11.13,0,0,0-1,3.34,15.12,15.12,0,0,0,.44,7.59,12.65,12.65,0,0,0,2.67,4.28,10,10,0,0,0,1.84,1.59c-.6.6-1.19,1.21-1.74,1.85l0,0c-1,.83-2,1.69-2.95,2.57a14.3,14.3,0,0,1-2.74-4.39c-1.36-3.37-1.62-7.07-1.89-10.7-.29-4-.57-8.13.7-11.94a12.2,12.2,0,0,1,3.14-5.08A8.7,8.7,0,0,1,123.64,421Zm44.7,12.27a2.83,2.83,0,0,1,.51,0,5.31,5.31,0,0,1,3.54,2.32c.92,1.36,1.87,3.43,1.19,5a.92.92,0,0,1-1.08.47c-1.14-.49-.92-2.65-1.74-3.69a5.52,5.52,0,0,0-1.57-1.24c-.58-.36-1.4-.28-1.83-.84a1.15,1.15,0,0,1,1-2Zm-42,.86a2.69,2.69,0,0,1,.89.31,5.14,5.14,0,0,1,2.39,3c.4,1.37.63,3.32-.39,4.29a.87.87,0,0,1-1.06,0c-.84-.77,0-2.39-.44-3.48a5.26,5.26,0,0,0-1-1.51c-.39-.47-1.12-.69-1.33-1.27a1.11,1.11,0,0,1,.11-1.16A1,1,0,0,1,126.31,434.16Zm18.82,9.56a20.56,20.56,0,0,1,5.5.86c.49.15,1,.31,1.43.49h0l.47.19.05,0,.73.31h0c.71.32,1.42.65,2.12,1h0l1.28.67c1.68.9,3.36,1.83,5.06,2.7h0c.23.12.45.25.69.36.75.38,1.51.72,2.28,1.06s1.29.56,1.95.82h0a58.11,58.11,0,0,0,8.05,2.6c.81.2,1.64.39,2.45.62l.77.25h0a9,9,0,0,1,.86.33,5.09,5.09,0,0,1,2.39,1.92,3.61,3.61,0,0,1,.24.57l.05.05a3.18,3.18,0,0,1,.28.43c.07.11.13.23.19.34v0a5.52,5.52,0,0,1,.47,1.44v0a8.25,8.25,0,0,1,0,2.48c-.2,1.66-.72,3.26-.93,4.91a11.83,11.83,0,0,1-.71,3.76c-.08.15-.16.29-.25.43a3.6,3.6,0,0,1-.28.4,6.67,6.67,0,0,1-2.4,1.79c-1.21.57-2.51.91-3.77,1.37-5.74,2.12-10.1,6.82-15.31,10A36.36,36.36,0,0,1,150,489.9a27.22,27.22,0,0,1-10.29,1.2,17.48,17.48,0,0,1-8.26-3c-3.43-2.41-5.71-6.08-8.27-9.39a32.46,32.46,0,0,0-4-4.41c-.43-.38-.87-.75-1.32-1.1a5.12,5.12,0,0,1,.68.31h0a6.37,6.37,0,0,1,.69.42,9.86,9.86,0,0,1,1,.79c.92.83,1.85,1.88,3,2.86a18.43,18.43,0,0,0,11.42,3.74,47.63,47.63,0,0,0,11.38-1.57,68.05,68.05,0,0,0,8.63-2.37,38.78,38.78,0,0,0,12-7.14,40.71,40.71,0,0,1,4.47-3.71,18.84,18.84,0,0,1,1.74-.93h0l.45-.22.43-.21.65-.33c.47-.23.95-.48,1.43-.76a5.57,5.57,0,0,0,.62-.43,2.81,2.81,0,0,0,.74-.91h0a2.74,2.74,0,0,0,.27-1.11l-.86-.14a10.45,10.45,0,0,0-1.58-.16,5,5,0,0,0-1.54.21,5.44,5.44,0,0,0-1.77,1c-.53.44-1,.93-1.51,1.41l-.44.41a48.8,48.8,0,0,1-4.24,3.46,50.43,50.43,0,0,1-11.46,6.83,49.7,49.7,0,0,1-8.42,2.31,46.66,46.66,0,0,1-10.91,1.14,21.11,21.11,0,0,1-10.45-3c-1.41-.88-2.67-2-4-2.92l-.57-.36h0l0,0-.76-.45h0l-.3-.16-.67-.32-.53-.2c-.19-.06-.37-.14-.56-.19h0l-.06,0h0a8.24,8.24,0,0,0-1-.19c-.36,0-.73-.05-1.09-.12a3.53,3.53,0,0,1-.46-.15,2.83,2.83,0,0,0,.11.67l0,.08a3.6,3.6,0,0,1-.6-.74,3.22,3.22,0,0,1-.31-.74c0-.06-.06-.12-.08-.18a2.38,2.38,0,0,1-.1-.65,6.58,6.58,0,0,1,.2-1.32,28.91,28.91,0,0,1,.74-3.47,11,11,0,0,1,1.61-3q.33-.47.69-.9c.34-.41.69-.81,1.06-1.2l.49-.53h0l.06-.06.06-.06c.54-.55,1.11-1.08,1.7-1.58a27.51,27.51,0,0,1,2.43-1.87,30.46,30.46,0,0,1,2.68-2.77c.48-.44,1-.86,1.48-1.26l.1-.09c.5-.4,1-.79,1.55-1.16l.08-.06q.84-.58,1.71-1.11c.58-.36,1.18-.69,1.78-1h0c.86-.45,1.73-.85,2.62-1.22h0c.51-.21,1-.42,1.55-.6a27.33,27.33,0,0,1,6.86-1.45A22.86,22.86,0,0,1,145.13,443.72Zm3.52,3.73a3.12,3.12,0,0,0-1.35.36c-.25.14-.53.47-.44.75a1,1,0,0,0,.13.25l.06.06.11.09a1.07,1.07,0,0,0,.36.21h0a2.23,2.23,0,0,0,.46.13l.51.12.08,0h0a3.3,3.3,0,0,1,.67.23c.69.35,1.24,1.12,2,1.15s1.9-.27,2-1c.12-1-1.29-1.57-2.19-1.93A6.19,6.19,0,0,0,148.65,447.45Zm-15.14.6a2.44,2.44,0,0,0-1.41.95,2.13,2.13,0,0,0-.38.75.9.9,0,0,0,.07.69c.15.25.6.57.91.4.46-.26.84-1.17,1.35-1.53.33-.24.25-1.11-.14-1.24A.89.89,0,0,0,133.51,448.05Zm-11.64,5.08.45.3,0,0Zm60,22.63c1,2.12,1.77,4.31,2.67,6.46q.69,1.61,1.44,3.18.21.48.45,1l.33.68c1.57,3.22,3.25,6.38,4.84,9.6.46.93.92,1.86,1.36,2.8a93.46,93.46,0,0,1,7.53,25.38,65.76,65.76,0,0,1,11.92,17c8.8,18.21,8.73,39.42,6.33,59.51l-.21,1.61-3.84-.55a34.6,34.6,0,0,0-4.08-.46c-.52,0-1.06,0-1.62,0A11.05,11.05,0,0,0,198,611.93a26,26,0,0,0-.05,6.16,171.8,171.8,0,0,1-.24,28.88l-.83.81c-7.16,6.94-14.59,13.81-23.4,18.5-15.41,8.21-34.45,8.89-50.7,2.5a51.3,51.3,0,0,0-5.21-8.34c-2-2.74-4.17-5.24-6.17-7.69a11.51,11.51,0,0,0,3.76-.91,9,9,0,0,0,3.93-3.25,9.4,9.4,0,0,0,1.31-6.09,14.6,14.6,0,0,0-2.16-5.93c-2.69-4.41-6.94-7.61-11-10.78q-11-8.53-21.38-17.88c-1.39-1.25-2.79-2.5-4.16-3.78-.85-.8-1.69-1.61-2.51-2.44l0,0h0a25.36,25.36,0,0,1-3.68-4.6,26.45,26.45,0,0,1-3-8.66,48.08,48.08,0,0,1,1.64-24.93c1.1-3.1,2.56-6.07,4-9.05,2.44-5.17,4.74-10.43,7.94-15.17l.65-.9c-1.88,5.53-3.82,11-6.14,16.4-1.41,3.27-3,6.49-4.16,9.85a41.37,41.37,0,0,0-1.44,24.13,35.29,35.29,0,0,0,3.79,9.06c.1.18.22.35.33.53a97.69,97.69,0,0,1,.46-10.82A115.71,115.71,0,0,1,89,552.2a132.31,132.31,0,0,1,11.74-21.15,32.19,32.19,0,0,1,1.18-12.57c2-6.7,6.1-12.55,10.16-18.25,1-1.32,1.89-2.66,2.76-4.05.31-.49.61-1,.9-1.49a1,1,0,0,1,.08-.14c.23-.43.46-.85.67-1.29.07-.13.13-.26.19-.39.18-.37.34-.75.5-1.14.06-.15.13-.3.18-.46a16.65,16.65,0,0,0,.53-1.6c1-3.64.77-7.49.91-11.27a.76.76,0,0,0,0-.15,41.38,41.38,0,0,1,3.14,3.21c2.53,2.9,4.89,6.49,8.61,9a19.53,19.53,0,0,0,9.05,3,31.42,31.42,0,0,0,10.87-1.15,38.55,38.55,0,0,0,9.22-3.74c5.47-3.13,9.8-7.45,15-9.1a38.52,38.52,0,0,0,3.91-1.23,8.72,8.72,0,0,0,2.1-1.23A6.22,6.22,0,0,0,181.83,475.76ZM213,528.27c4.63,2.53,9.46,4.75,13.69,7.87a35.74,35.74,0,0,1,14,22.52c1.17,7.07,1.42,13-.83,21.22-1.44,5.3-3.31,10.44-5.21,15.58l-.31,0c.41,0,.81-.07,1.21-.07a27.28,27.28,0,0,1,4.85.46c2.46.42,4.9,1,7.35,1.44l1.27.23c-2.43-.14-4.88-.16-7.32-.07-1.7.06-3.4.18-5.1.34a21,21,0,0,0-7.12,1.61,53,53,0,0,0-4.94,3.1c-.35.22-.71.42-1.08.62a16.47,16.47,0,0,1,3.27-4.24,13.28,13.28,0,0,1,5.87-3.15c4.18-11.73,7.87-23.93,6-36.12A35.91,35.91,0,0,0,226,537.12C221.89,533.83,217,531.57,213,528.27Zm20.9,67.26a12.73,12.73,0,0,0-1.26.21A12.73,12.73,0,0,1,233.86,595.53ZM64.13,599h0a11.72,11.72,0,0,1,1.45.18,14.14,14.14,0,0,1,5.34,2.27c3.23,2.19,5.62,5.38,7.91,8.54,5.26,7.24,10.33,14.64,14.92,22.33,3.72,6.23,7.14,12.68,11.44,18.53l1.09,1.41c2.52,3.29,5.24,6.43,7.71,9.76,1,1.28,1.86,2.61,2.7,4a39.25,39.25,0,0,1,2.17,4l.2.45c.22.5.44,1,.64,1.53l.27.71.13.39c.17.49.33,1,.47,1.5s.25,1,.36,1.53c0,.13,0,.26.07.38.1.52.19,1,.25,1.56h0v.06c0,.44.09.89.12,1.33s.05,1,.05,1.55c0,.18,0,.35,0,.53,0,.67,0,1.33-.11,2s-.11,1.08-.19,1.62-.21,1.16-.34,1.74h0c-.13.57-.28,1.12-.45,1.68a24.82,24.82,0,0,1-1.61,4,23.71,23.71,0,0,1-8.76,9.39,22.55,22.55,0,0,1-12.4,3.24c-6.89-.26-13.18-3.7-19.58-6.25C65,693.67,50.8,692,37.35,688c-4.13-1.25-8.19-2.72-12.35-3.86a35.56,35.56,0,0,1-5.47-1.75,9.42,9.42,0,0,1-4.35-3.62,8.22,8.22,0,0,1-1-4.26,13.47,13.47,0,0,1,.87-4.34c1-2.79,2.64-5.31,3.74-8.06,1.8-4.49,2.12-9.45,1.88-14.28s-1-9.62-1.36-14.45a24.94,24.94,0,0,1,.21-6.46,10.62,10.62,0,0,1,2.88-5.69,10.79,10.79,0,0,1,5.29-2.61,26.91,26.91,0,0,1,6-.38,56.61,56.61,0,0,0,6,0,13.65,13.65,0,0,0,5.71-1.6,13.39,13.39,0,0,0,4.1-3.87,46,46,0,0,0,2.94-4.85c.66-1.18,1.34-2.35,2.1-3.45.32-.45.64-.89,1-1.31a11.81,11.81,0,0,1,4.44-3.46c.3-.12.61-.22.92-.31l.23-.07c.32-.08.63-.15.95-.2a8.75,8.75,0,0,1,.88-.09A9.52,9.52,0,0,1,64.13,599Zm146.49,6.11a33.5,33.5,0,0,1,3.58.4l3.88.56h0c1.19.17,2.38.36,3.56.57l.2,0a24.77,24.77,0,0,0-1,9.46c.23,3,1,6,2.93,8.26a12.77,12.77,0,0,0,6.12,3.63,20.73,20.73,0,0,0,12.23-.18,32.16,32.16,0,0,0,16.14-12.13,18.4,18.4,0,0,0,2.73-5.55c.17-.26.32-.52.48-.78l.25.07A11.07,11.07,0,0,1,266.4,612a10.1,10.1,0,0,1,2.12,3.46,20.93,20.93,0,0,1,1.31,5.91,53.08,53.08,0,0,0,.47,5.36,17.67,17.67,0,0,0,4,7.81,51.38,51.38,0,0,0,6.42,6.09c2.25,1.89,4.51,3.78,6.94,5.44,1.14.78,2.32,1.5,3.4,2.36a10.89,10.89,0,0,1,2.76,3.06,7.66,7.66,0,0,1,.76,5.43h0a18.87,18.87,0,0,1-3.17,5.34c-2.95,3.51-7.06,5.82-11.14,7.9-7,3.56-14.19,6.67-20.75,10.95A84.92,84.92,0,0,0,247.27,691c-3.24,3.1-6.32,6.41-10,9a28.61,28.61,0,0,1-12.38,5.24,29.68,29.68,0,0,1-16.1-2.44c-3.53-1.54-6.93-3.74-9-7a14.32,14.32,0,0,1-1.13-2.29h0c-.12-.3-.22-.61-.32-.92,0-.08,0-.16-.08-.24-.09-.3-.18-.61-.26-.92,0-.07,0-.14,0-.21a17.42,17.42,0,0,1-.39-2.06c-.1-.71-.17-1.43-.21-2.15,0-.09,0-.19,0-.28q-.06-1.05-.06-2.1c0-6.84,1.26-13.61,2.45-20.35,1-5.6,1.94-11.21,2.55-16.87.11-1,.2-2,.29-3.07.07-.86.13-1.72.19-2.58a181.47,181.47,0,0,0-.12-25.33,23,23,0,0,1,0-5.18,6.59,6.59,0,0,1,6.71-6.15Q210,605.07,210.62,605.1Z" transform="translate(-9 -4.85)"/></g></svg>