<svg xmlns="http://www.w3.org/2000/svg" width="2260" height="1000" viewBox="0 0 2260 1000">
  <defs>
    <style>
      .cls-1 {
        fill: #6d4a59;
        stroke-width: 24px;
      }

      .cls-1, .cls-2 {
        stroke: #000;
        stroke-linejoin: round;
      }

      .cls-1, .cls-2, .cls-3 {
        fill-rule: evenodd;
      }

      .cls-2 {
        fill: #fede06;
        stroke-width: 12px;
      }
    </style>
  </defs>
  <path id="BackgroundPurple" class="cls-1" d="M2232,500c0,256.281-201.69,465.447-455,477.449V978H490v-0.272C233.416,969.288,28,758.637,28,500S233.416,30.712,490,22.272V22H1777v0.551C2030.31,34.553,2232,243.719,2232,500Z"/>
  <path id="Tilted_with_Outline-High" data-name="Tilted with Outline-High" class="cls-2" d="M1824.98,601.075a35.254,35.254,0,0,0-3.48,14.623q0,9.759,10.45,9.748,9.735,0,24.37-5.918a171.451,171.451,0,0,0,29.94-16.016,198.424,198.424,0,0,0,29.24-23.675,129.3,129.3,0,0,0,22.29-28.2l20.89,27.157q-8.355,19.5-31.34,40.735a326.091,326.091,0,0,1-52.92,39.342,347.558,347.558,0,0,1-63.02,29.941q-33.075,11.848-60.92,11.838-17.415,0-24.72-6.615a54.457,54.457,0,0,1-12.19-16.364,92.069,92.069,0,0,1-15.67,10.445,96.884,96.884,0,0,1-17.4,6.963,126.809,126.809,0,0,1-21.24,4.178,235.852,235.852,0,0,1-27.16,1.393q-24.375,0-42.13-13.578t-17.75-42.824q0-4.076.42-8.665c-3.27,2.465-6.65,4.89-10.17,7.272q-39.69,28.56-79.38,43.172t-91.22,14.623q-27.855,0-49.09-1.741t-35.86-8.008q-14.61-6.267-22.28-17.756t-7.66-30.986q0-3.143.27-6.544a328.731,328.731,0,0,1-36.47,25,332.265,332.265,0,0,1-62.67,28.9q-32.73,11.146-60.58,11.141-23.67,0-37.25-14.623a49.415,49.415,0,0,1-13.58-34.816,60.283,60.283,0,0,1,.41-6.661,292.082,292.082,0,0,1-26.16,17.106,307.545,307.545,0,0,1-65.455,28.2,249.824,249.824,0,0,1-73.114,10.793q-35.511,0-56.75-19.149-20.128-18.134-21.168-45.344a325.268,325.268,0,0,1-35.225,23.758,356.2,356.2,0,0,1-63.365,29.246q-33.081,11.489-60.928,11.489-22.293,0-36.557-12.186-14.28-12.174-14.274-33.075,0-16.712,9.052-34.816L726.918,388l87.736,48.046-73.81,166.421q-3.492,8.355-3.482,12.534,0,10.445,11.838,10.444t27.853-7.659a199.839,199.839,0,0,0,31.334-18.8,215.369,215.369,0,0,0,27.853-24.023A110.46,110.46,0,0,0,849.8,558.454L979.673,266.842q21.575-47.344,57.8-67.892,36.195-20.53,93.3-20.541,32.73,0,50.49,11.141Q1199,200.7,1199.01,222.974a68.088,68.088,0,0,1-2.78,17.756q-2.79,10.1-11.14,29.593L1144,360.845q-45.945,103.762-155.275,145.531l-41.779,93.307q-4.178,8.355-4.178,14.622,0,8.356,12.882,12.882a76.123,76.123,0,0,0,25.415,4.526q16.713,0,34.815-7.311a191.03,191.03,0,0,0,35.17-18.8,210.423,210.423,0,0,0,31.33-25.764q14.265-14.264,21.93-28.2l0.05,0.055,45.2-101.717h-29.94l17.41-38.994h29.25l96.78-215.163,118.38-7.659L1282.56,410.98h31.34l-17.41,38.994h-31.34L1192.74,611.52c-2.33,4.646-3.48,8.356-3.48,11.141,0,3.721,2.31,5.571,6.96,5.571q12.525,0,28.9-7.66a204.2,204.2,0,0,0,32.37-19.149,218.492,218.492,0,0,0,29.25-25.067,132.447,132.447,0,0,0,13.53-16.007l24.06-53.973q12.54-28.543,27.16-48.395a126.687,126.687,0,0,1,34.47-32.378q19.845-12.534,45.95-18.105t61.63-5.57q27.15,0,44.91,3.133t27.5,8.7q9.75,5.582,13.58,13.927a44.662,44.662,0,0,1,3.83,18.8q0,17.413-5.22,39.69-5.22,22.293-21.24,43.172-11.145,14.623-30.29,24.023a204.793,204.793,0,0,1-42.12,14.971,392.543,392.543,0,0,1-46.31,8.356q-23.34,2.79-42.82,3.482-8.355,18.114-12.89,30.986-4.53,12.893-4.52,21.238,0,18.8,25.76,18.8a235.208,235.208,0,0,0,58.49-7.659,277.022,277.022,0,0,0,56.75-21.238,252.479,252.479,0,0,0,48.4-31.683,149.349,149.349,0,0,0,29.64-32.827l7.96-17.308q34.1-74.5,73.81-106.537,39.69-32.019,79.38-32.03,15.3,0,24.72,2.437a54.722,54.722,0,0,1,14.97,5.919L1900.88,180.5h115.59ZM1049.65,414.461q17.76-22.276,31.69-53.616l41.77-89.825q5.565-12.534,7.32-17.757a28.912,28.912,0,0,0,1.74-8.7q0-6.951-10.45-6.963-13.23,0-18.8,12.534l-87.04,192.184Q1031.885,436.749,1049.65,414.461Zm389.23,120.464a77.721,77.721,0,0,0,23.32-18.1,84.323,84.323,0,0,0,15.32-25.763,87.36,87.36,0,0,0,5.57-31.335q0-9.04-13.23-9.052a23.526,23.526,0,0,0-14.97,5.222q-6.63,5.223-14.27,21.935l-30.64,65.454A78.257,78.257,0,0,0,1438.88,534.925Zm327.61-85.648a25.915,25.915,0,0,0-14.97,4.527q-6.63,4.536-12.18,17.059l-68.24,155.28q-5.58,11.146-5.57,17.408,0,9.759,8.35,9.748,15.315,0,25.07-21.586l79.38-176.865Q1774.835,449.283,1766.49,449.277Zm-910.4-118.026a122.062,122.062,0,0,1-28.2,11.49,108.959,108.959,0,0,1-28.549,4.177q-18.115,0-32.379-8.007-14.28-8-14.275-21.934,0-11.13,7.66-21.934a76.141,76.141,0,0,1,20.193-19.149,110.11,110.11,0,0,1,27.853-13.23,102.9,102.9,0,0,1,31.334-4.874q18.1,0,32.379,8.355,14.264,8.357,14.275,22.979a37.342,37.342,0,0,1-8.7,24.023A74.835,74.835,0,0,1,856.085,331.251Zm-119.071-94.7a121.954,121.954,0,0,0-10.445,17.408q-3.836,8.013-8.008,19.149H668.426q5.565-13.921,11.837-26.461a79.534,79.534,0,0,1,14.623-20.889h-94.7a20.914,20.914,0,0,0,.348,3.481,30.538,30.538,0,0,1,.348,4.875q-0.7,9.759-4.526,29.245-3.836,19.5-18.453,52.92L414.269,698.56H288.932l189.4-433.807q5.565-14.623,5.57-21.586,0-17.4-25.764-17.408H387.809q-18.8,0-18.8-22.282,0-22.979,21.585-22.979H785.408q-19.5,20.889-30.638,33.771T737.014,236.552Z"/>
  <path id="GAME_MANAGER" data-name="GAME MANAGER" class="cls-3" d="M561.206,782.5a19.6,19.6,0,0,0-19.471,19.58v48.84a19.6,19.6,0,0,0,19.471,19.58h44.22a19.553,19.553,0,0,0,19.58-19.58v-25.3a5.434,5.434,0,0,0-5.72-5.5h-46.64a5.526,5.526,0,0,0-5.83,5.5,5.8,5.8,0,0,0,5.83,5.83h40.81v19.47a8,8,0,0,1-8.03,8.03h-44.22a8.053,8.053,0,0,1-7.92-8.03v-48.84a8.053,8.053,0,0,1,7.92-8.03h58.08a5.681,5.681,0,0,0,5.72-5.72,5.775,5.775,0,0,0-5.72-5.83h-58.08Zm94.928,0a18.919,18.919,0,0,0-18.92,18.92v63.36a5.665,5.665,0,1,0,11.33,0v-33.44h56.1v33.44a5.72,5.72,0,0,0,11.44,0v-63.36a18.919,18.919,0,0,0-18.92-18.92h-41.03Zm-7.59,18.92a7.512,7.512,0,0,1,7.59-7.48h41.03a7.488,7.488,0,0,1,7.48,7.48v18.7h-56.1v-18.7Zm164.339-18.81a18.345,18.345,0,0,0-13.31,5.5,20.246,20.246,0,0,0-13.2-5.5h-38.72a18.919,18.919,0,0,0-18.92,18.92v63.36a5.751,5.751,0,0,0,5.72,5.72,5.589,5.589,0,0,0,5.61-5.72v-63.36a7.512,7.512,0,0,1,7.59-7.48h38.72a7.607,7.607,0,0,1,7.7,7.48v63.36a5.611,5.611,0,1,0,11.22,0v-63.36a7.512,7.512,0,0,1,7.59-7.48H851.6a7.538,7.538,0,0,1,7.7,7.48v63.36a5.611,5.611,0,1,0,11.22,0v-63.36a18.919,18.919,0,0,0-18.92-18.92h-38.72Zm91.188,76.67a7.656,7.656,0,0,1-7.48-7.59v-20.24H952.8a5.665,5.665,0,0,0,0-11.33H896.591v-18.59a7.56,7.56,0,0,1,7.48-7.48h50.051a5.8,5.8,0,0,0,5.61-5.72,5.658,5.658,0,0,0-5.61-5.72H904.071a18.919,18.919,0,0,0-18.92,18.92v50.16a18.919,18.919,0,0,0,18.92,18.92h50.051a5.665,5.665,0,1,0,0-11.33H904.071Zm187.439-76.67a18.345,18.345,0,0,0-13.31,5.5,20.246,20.246,0,0,0-13.2-5.5h-38.72a18.919,18.919,0,0,0-18.92,18.92v63.36a5.751,5.751,0,0,0,5.72,5.72,5.589,5.589,0,0,0,5.61-5.72v-63.36a7.512,7.512,0,0,1,7.59-7.48H1065a7.607,7.607,0,0,1,7.7,7.48v63.36a5.611,5.611,0,1,0,11.22,0v-63.36a7.512,7.512,0,0,1,7.59-7.48h38.72a7.538,7.538,0,0,1,7.7,7.48v63.36a5.611,5.611,0,1,0,11.22,0v-63.36a18.919,18.919,0,0,0-18.92-18.92h-38.72Zm91.19-.11a18.919,18.919,0,0,0-18.92,18.92v63.36a5.665,5.665,0,1,0,11.33,0v-33.44h56.1v33.44a5.72,5.72,0,1,0,11.44,0v-63.36a18.919,18.919,0,0,0-18.92-18.92H1182.7Zm-7.59,18.92a7.512,7.512,0,0,1,7.59-7.48h41.03a7.488,7.488,0,0,1,7.48,7.48v18.7h-56.1v-18.7Zm152.46,63.47a5.729,5.729,0,0,0,5.61,5.72,5.613,5.613,0,0,0,5.72-5.72v-63.36a18.919,18.919,0,0,0-18.92-18.92h-45.76a18.919,18.919,0,0,0-18.92,18.92v63.36a5.611,5.611,0,1,0,11.22,0v-63.36a7.629,7.629,0,0,1,7.7-7.59h45.76a7.605,7.605,0,0,1,7.59,7.59v63.36Zm39.49-82.39a18.919,18.919,0,0,0-18.92,18.92v63.36a5.665,5.665,0,1,0,11.33,0v-33.44h56.1v33.44a5.72,5.72,0,0,0,11.44,0v-63.36a18.919,18.919,0,0,0-18.92-18.92h-41.03Zm-7.59,18.92a7.512,7.512,0,0,1,7.59-7.48h41.03a7.488,7.488,0,0,1,7.48,7.48v18.7h-56.1v-18.7Zm99.66-18.92a19.6,19.6,0,0,0-19.47,19.58v48.84a19.6,19.6,0,0,0,19.47,19.58h44.22a19.553,19.553,0,0,0,19.58-19.58v-25.3a5.434,5.434,0,0,0-5.72-5.5h-46.64a5.526,5.526,0,0,0-5.83,5.5,5.8,5.8,0,0,0,5.83,5.83h40.81v19.47a8,8,0,0,1-8.03,8.03h-44.22a8.053,8.053,0,0,1-7.92-8.03v-48.84a8.053,8.053,0,0,1,7.92-8.03h58.08a5.681,5.681,0,0,0,5.72-5.72,5.775,5.775,0,0,0-5.72-5.83h-58.08Zm94.92,76.78a7.656,7.656,0,0,1-7.48-7.59v-20.24h56.21a5.665,5.665,0,0,0,0-11.33h-56.21v-18.59a7.56,7.56,0,0,1,7.48-7.48h50.05a5.8,5.8,0,0,0,5.61-5.72,5.658,5.658,0,0,0-5.61-5.72h-50.05a18.919,18.919,0,0,0-18.92,18.92v50.16a18.919,18.919,0,0,0,18.92,18.92h50.05a5.665,5.665,0,1,0,0-11.33h-50.05Zm130.46-76.78h-43.45a18.943,18.943,0,0,0-19.03,18.92v63.36a5.681,5.681,0,0,0,5.72,5.72,5.824,5.824,0,0,0,5.72-5.72v-26.51h39.16l11.33,28.71a5.717,5.717,0,0,0,5.28,3.52,4.464,4.464,0,0,0,2.09-.44,6.033,6.033,0,0,0,3.63-5.39,4.314,4.314,0,0,0-.44-1.98c-3.08-7.37-7.48-18.15-9.9-24.42a18.9,18.9,0,0,0,18.81-18.92v-17.93A18.919,18.919,0,0,0,1684.51,782.5Zm7.7,36.85a7.7,7.7,0,0,1-7.7,7.59h-51.04v-25.52a7.583,7.583,0,0,1,7.59-7.48h43.45a7.68,7.68,0,0,1,7.7,7.48v17.93Z"/>
</svg>
