<svg xmlns="http://www.w3.org/2000/svg" width="2260" height="1000" viewBox="0 0 2260 1000">
  <defs>
    <style>
      .cls-1 {
        fill: #4e576a;
        stroke-width: 24px;
      }

      .cls-1, .cls-2 {
        stroke: #000;
        stroke-linejoin: round;
        fill-rule: evenodd;
      }

      .cls-2 {
        fill: #fede06;
        stroke-width: 12px;
      }
    </style>
  </defs>
  <path id="BackgroundBlue" class="cls-1" d="M2232,500c0,256.281-201.69,465.447-455,477.449V978H490v-0.272C233.416,969.288,28,758.637,28,500S233.416,30.712,490,22.272V22H1777v0.551C2030.31,34.553,2232,243.719,2232,500Z"/>
  <path id="Tilted_with_Outline" data-name="Tilted with Outline" class="cls-2" d="M1819.98,663.075a35.254,35.254,0,0,0-3.48,14.623q0,9.759,10.45,9.748,9.735,0,24.37-5.918a171.451,171.451,0,0,0,29.94-16.016,198.424,198.424,0,0,0,29.24-23.675,129.323,129.323,0,0,0,22.29-28.2l20.89,27.156q-8.355,19.5-31.34,40.735a326.091,326.091,0,0,1-52.92,39.342,347.558,347.558,0,0,1-63.02,29.941q-33.075,11.848-60.92,11.838-17.415,0-24.72-6.615a54.457,54.457,0,0,1-12.19-16.364,92.069,92.069,0,0,1-15.67,10.445,96.884,96.884,0,0,1-17.4,6.963,126.809,126.809,0,0,1-21.24,4.178,235.852,235.852,0,0,1-27.16,1.393q-24.375,0-42.13-13.578t-17.75-42.824q0-4.076.42-8.665c-3.27,2.465-6.65,4.89-10.17,7.272q-39.69,28.56-79.38,43.172t-91.22,14.623q-27.855,0-49.09-1.741t-35.86-8.008q-14.61-6.266-22.28-17.756t-7.66-30.986q0-3.143.27-6.544a328.873,328.873,0,0,1-36.47,25,332.324,332.324,0,0,1-62.67,28.9q-32.73,11.146-60.58,11.141-23.67,0-37.25-14.623a49.415,49.415,0,0,1-13.58-34.816,60.283,60.283,0,0,1,.41-6.661,292.082,292.082,0,0,1-26.16,17.106,307.545,307.545,0,0,1-65.455,28.2,249.791,249.791,0,0,1-73.114,10.793q-35.511,0-56.75-19.149-20.128-18.134-21.168-45.344a325.268,325.268,0,0,1-35.225,23.758,356.2,356.2,0,0,1-63.365,29.246q-33.081,11.489-60.928,11.489-22.293,0-36.557-12.186-14.28-12.174-14.274-33.075,0-16.712,9.052-34.816L721.918,450l87.736,48.046-73.81,166.421q-3.492,8.355-3.481,12.534,0,10.445,11.837,10.444t27.853-7.659a199.839,199.839,0,0,0,31.334-18.8,215.3,215.3,0,0,0,27.853-24.023A110.46,110.46,0,0,0,844.8,620.454L974.673,328.842q21.575-47.344,57.8-67.892,36.195-20.53,93.3-20.541,32.73,0,50.49,11.141Q1194,262.7,1194.01,284.974a68.088,68.088,0,0,1-2.78,17.756q-2.79,10.1-11.14,29.593L1139,422.845q-45.945,103.762-155.275,145.531l-41.779,93.307q-4.178,8.355-4.178,14.622,0,8.356,12.882,12.882a76.124,76.124,0,0,0,25.416,4.526q16.711,0,34.814-7.311a191.03,191.03,0,0,0,35.17-18.8,210.423,210.423,0,0,0,31.33-25.764q14.265-14.264,21.93-28.2l0.05,0.054,45.2-101.717h-29.94l17.41-38.994h29.25l96.78-215.163,118.38-7.659L1277.56,472.98h31.34l-17.41,38.994h-31.34L1187.74,673.52c-2.33,4.646-3.48,8.356-3.48,11.141,0,3.721,2.31,5.571,6.96,5.571q12.525,0,28.9-7.66a204.2,204.2,0,0,0,32.37-19.149,218.492,218.492,0,0,0,29.25-25.067,132.447,132.447,0,0,0,13.53-16.007l24.06-53.973q12.54-28.543,27.16-48.395a126.687,126.687,0,0,1,34.47-32.378q19.845-12.534,45.95-18.105t61.63-5.57q27.15,0,44.91,3.133t27.5,8.7q9.75,5.582,13.58,13.927a44.662,44.662,0,0,1,3.83,18.8q0,17.413-5.22,39.69-5.22,22.294-21.24,43.172-11.145,14.623-30.29,24.023a204.793,204.793,0,0,1-42.12,14.971,392.543,392.543,0,0,1-46.31,8.356q-23.34,2.79-42.82,3.482-8.355,18.114-12.89,30.986-4.53,12.893-4.52,21.238,0,18.8,25.76,18.8a235.208,235.208,0,0,0,58.49-7.659,277.022,277.022,0,0,0,56.75-21.238,252.479,252.479,0,0,0,48.4-31.683,149.349,149.349,0,0,0,29.64-32.827l7.96-17.308q34.1-74.5,73.81-106.537,39.69-32.019,79.38-32.03,15.3,0,24.72,2.437a54.722,54.722,0,0,1,14.97,5.919L1895.88,242.5h115.59ZM1044.65,476.461q17.76-22.276,31.69-53.616l41.77-89.825q5.565-12.534,7.32-17.757a28.912,28.912,0,0,0,1.74-8.7q0-6.951-10.45-6.963-13.23,0-18.8,12.534l-87.04,192.184Q1026.885,498.749,1044.65,476.461Zm389.23,120.464a77.718,77.718,0,0,0,23.32-18.1,84.34,84.34,0,0,0,15.32-25.764,87.36,87.36,0,0,0,5.57-31.335q0-9.04-13.23-9.052a23.521,23.521,0,0,0-14.97,5.223q-6.63,5.221-14.27,21.934l-30.64,65.454A78.257,78.257,0,0,0,1433.88,596.925Zm327.61-85.648a25.915,25.915,0,0,0-14.97,4.527q-6.63,4.536-12.18,17.059l-68.24,155.28q-5.58,11.146-5.57,17.408,0,9.759,8.35,9.748,15.315,0,25.07-21.586l79.38-176.865Q1769.835,511.283,1761.49,511.277Zm-910.4-118.026a122.018,122.018,0,0,1-28.2,11.49,108.962,108.962,0,0,1-28.549,4.178q-18.115,0-32.379-8.008-14.28-8-14.274-21.934,0-11.13,7.659-21.934a76.141,76.141,0,0,1,20.193-19.149,110.11,110.11,0,0,1,27.853-13.23,102.9,102.9,0,0,1,31.335-4.874q18.1,0,32.378,8.355,14.264,8.357,14.275,22.979a37.342,37.342,0,0,1-8.7,24.023A74.819,74.819,0,0,1,851.085,393.251Zm-119.071-94.7a121.954,121.954,0,0,0-10.445,17.408q-3.836,8.013-8.008,19.149H663.426q5.565-13.921,11.838-26.461a79.509,79.509,0,0,1,14.622-20.889h-94.7a21.022,21.022,0,0,0,.348,3.481,30.538,30.538,0,0,1,.348,4.875q-0.7,9.759-4.526,29.245-3.836,19.5-18.453,52.92L409.269,760.56H283.932l189.4-433.807q5.565-14.623,5.57-21.586,0-17.4-25.763-17.408H382.809q-18.8,0-18.8-22.282,0-22.978,21.585-22.979H780.408q-19.5,20.889-30.638,33.772T732.014,298.552Z"/>
</svg>
